<?xml version="1.0" ?><!DOCTYPE svg  PUBLIC '-//W3C//DTD SVG 1.0//EN'  'http://www.w3.org/TR/2001/REC-SVG-20010904/DTD/svg10.dtd'><svg height="128px" style="shape-rendering:geometricPrecision; text-rendering:geometricPrecision; image-rendering:optimizeQuality; fill-rule:evenodd; clip-rule:evenodd" version="1.0" viewBox="0 0 14118 20080" width="90px" xml:space="preserve" xmlns="http://www.w3.org/2000/svg" xmlns:xlink="http://www.w3.org/1999/xlink"><defs><style type="text/css">
   <![CDATA[
    .fil0 {fill:#E6C131}
   ]]>
  </style></defs><g id="Layer_x0020_1"><path class="fil0" d="M1603 0l10912 0c882,0 1603,722 1603,1603l0 16873c0,882 -721,1604 -1603,1604l-10912 0c-881,0 -1603,-722 -1603,-1604l0 -16873c0,-881 722,-1603 1603,-1603zm1514 10612c746,0 1351,-605 1351,-1351 0,-747 -605,-1352 -1351,-1352 -747,0 -1352,605 -1352,1352 0,746 605,1351 1352,1351zm0 7452c746,0 1351,-605 1351,-1352 0,-747 -605,-1352 -1351,-1352 -747,0 -1352,605 -1352,1352 0,747 605,1352 1352,1352zm7885 0c746,0 1352,-605 1352,-1352 0,-747 -606,-1352 -1352,-1352 -747,0 -1352,605 -1352,1352 0,747 605,1352 1352,1352zm-3943 0c747,0 1352,-605 1352,-1352 0,-747 -605,-1352 -1352,-1352 -746,0 -1351,605 -1351,1352 0,747 605,1352 1351,1352zm-3942 -3726c746,0 1351,-605 1351,-1352 0,-746 -605,-1351 -1351,-1351 -747,0 -1352,605 -1352,1351 0,747 605,1352 1352,1352zm7885 0c746,0 1352,-605 1352,-1352 0,-746 -606,-1351 -1352,-1351 -747,0 -1352,605 -1352,1351 0,747 605,1352 1352,1352zm-3943 0c747,0 1352,-605 1352,-1352 0,-746 -605,-1351 -1352,-1351 -746,0 -1351,605 -1351,1351 0,747 605,1352 1351,1352zm3943 -3726c746,0 1352,-605 1352,-1351 0,-747 -606,-1352 -1352,-1352 -747,0 -1352,605 -1352,1352 0,746 605,1351 1352,1351zm-3943 0c747,0 1352,-605 1352,-1351 0,-747 -605,-1352 -1352,-1352 -746,0 -1351,605 -1351,1352 0,746 605,1351 1351,1351zm-5294 -8771l10589 0 0 4000 -10589 0 0 -4000z"/></g></svg>