<?xml version="1.0" ?><svg id="Layer_1" style="enable-background:new 0 0 2048 2048;" version="1.1" viewBox="0 0 2048 2048" xml:space="preserve" xmlns="http://www.w3.org/2000/svg" xmlns:xlink="http://www.w3.org/1999/xlink"><style type="text/css">
	.st0{fill:#FFE17D;}
	.st1{fill:#6F6571;}
	.st2{fill:#EDEBED;}
</style><g><g><g><g id="XMLID_1_"><g><circle class="st0" cx="1179.4" cy="1154.2" r="10.9"/><circle class="st0" cx="949.1" cy="1154.2" r="10.9"/><polygon class="st0" points="1302.1,788.8 1247.8,1045.8 893.8,1045.8 839.5,788.8      "/><path class="st1" d="M1700.2,1366.4h55.8c-4,44.5-23.3,85.8-55.3,117.7c-36.1,36.1-84.2,56-135.3,56H482.5       c-99.6,0-181.6-76.5-190.5-173.8h55.8c1.1,0.2,2.3,0.3,3.5,0.3h486.2l18.8,78.6c1.9,7.9,9,13.5,17.1,13.5h301.4       c8.1,0,15.2-5.6,17.1-13.5l18.8-78.6h486.2C1697.9,1366.7,1699.1,1366.6,1700.2,1366.4z"/><path class="st2" d="M1679.1,519.6v811.6h-482.4h0c-0.3,0-0.6,0-0.9,0c-0.2,0-0.5,0-0.7,0c-1.7,0.2-3.3,0.6-4.8,1.2       c-0.7,0.2-1.3,0.6-1.9,0.9c0,0,0,0-0.1,0c-0.4,0.2-0.8,0.5-1.2,0.7c-0.2,0.1-0.4,0.3-0.6,0.4c-0.2,0.1-0.4,0.3-0.6,0.4       c-0.2,0.1-0.4,0.3-0.6,0.5c-0.4,0.3-0.7,0.6-1.1,1c-0.4,0.3-0.7,0.7-1,1.1c-0.3,0.4-0.6,0.8-0.9,1.2c-0.2,0.2-0.3,0.4-0.4,0.6       c-0.3,0.4-0.5,0.8-0.8,1.3c-0.4,0.6-0.7,1.3-0.9,2c-0.3,0.7-0.5,1.5-0.7,2.2l-0.1,0.6l-18.7,78.4H887.2l-18.7-78.4l-0.1-0.6       c-0.2-0.8-0.4-1.5-0.7-2.2c-0.2-0.7-0.6-1.4-0.9-2c-0.2-0.4-0.5-0.9-0.8-1.3c-0.1-0.2-0.2-0.4-0.4-0.6       c-0.3-0.4-0.6-0.8-0.9-1.2c-0.3-0.4-0.6-0.7-1-1.1c-0.3-0.3-0.7-0.7-1.1-1c-0.2-0.2-0.4-0.3-0.6-0.5c-0.2-0.2-0.4-0.3-0.6-0.4       c-0.2-0.1-0.4-0.3-0.6-0.4c-0.4-0.3-0.8-0.5-1.2-0.7c0,0-0.1,0-0.1,0c-0.6-0.3-1.3-0.6-1.9-0.9c-1.5-0.6-3.1-1-4.8-1.2       c-0.2,0-0.5,0-0.7,0c-0.3,0-0.6,0-0.9,0h0H368.9V519.6c0-6.5,5.3-11.7,11.7-11.7h1286.8       C1673.9,507.8,1679.1,513.1,1679.1,519.6z M1341.4,771.2C1341.4,771.2,1341.4,771.2,1341.4,771.2c0-0.3,0-0.6,0-0.9       c0-0.3,0-0.6-0.1-0.9c0-0.4-0.1-0.9-0.2-1.3c0-0.2-0.1-0.5-0.1-0.7c-0.1-0.5-0.2-1-0.4-1.5c-0.1-0.3-0.2-0.5-0.3-0.8       c-0.8-2.2-2-4.1-3.5-5.8c-0.2-0.2-0.4-0.4-0.6-0.6c-0.2-0.2-0.4-0.4-0.6-0.6c-0.4-0.4-0.8-0.7-1.3-1.1c0,0,0,0,0,0       c-0.5-0.4-0.9-0.7-1.4-1c-0.5-0.3-1-0.6-1.5-0.8c-0.2-0.1-0.5-0.2-0.8-0.4c-0.5-0.2-1.1-0.4-1.6-0.6c0,0-0.1,0-0.1,0       c-0.5-0.2-1-0.3-1.5-0.4c-0.6-0.1-1.2-0.2-1.8-0.3c-0.9-0.1-1.7-0.1-2.6-0.1H832.1L822,705.7c-0.2-0.8-0.4-1.5-0.6-2.2       c-0.1-0.2-0.2-0.5-0.3-0.7c-0.1-0.2-0.2-0.5-0.3-0.7c-0.1-0.1-0.1-0.3-0.2-0.5c-0.6-1.2-1.3-2.3-2.1-3.3       c-0.1-0.1-0.2-0.3-0.3-0.4c-0.5-0.6-1.1-1.2-1.8-1.8c-0.2-0.2-0.4-0.3-0.6-0.5c-0.6-0.5-1.2-0.9-1.8-1.3       c-0.2-0.1-0.4-0.3-0.6-0.4c-1.1-0.6-2.2-1.1-3.4-1.5c-0.5-0.1-1-0.3-1.4-0.4c-0.5-0.1-1.1-0.2-1.6-0.3       c-0.5-0.1-0.9-0.1-1.4-0.1c-0.3,0-0.5,0-0.8,0h-80.5c-9.7,0-17.6,7.9-17.6,17.6c0,9.7,7.9,17.6,17.6,17.6h66.3l10,47.2       c0.1,0.5,0.2,1,0.3,1.4c0,0,0,0,0,0l61.5,291.4c0.2,0.8,0.4,1.5,0.6,2.2c0.1,0.2,0.2,0.5,0.3,0.7c0.1,0.2,0.2,0.5,0.3,0.7       c0.1,0.2,0.2,0.4,0.3,0.7c0.2,0.5,0.5,0.9,0.8,1.4c0.5,0.8,1.1,1.6,1.7,2.3c0.2,0.2,0.3,0.4,0.5,0.5c0.3,0.4,0.7,0.7,1.1,1       c0.7,0.7,1.5,1.2,2.4,1.7c0.2,0.1,0.4,0.3,0.6,0.4c0,0,0,0,0.1,0c0.8,0.5,1.7,0.9,2.6,1.2c0.7,0.3,1.5,0.5,2.2,0.6       c1.2,0.3,2.5,0.4,3.7,0.4c0.1,0,0.3,0,0.5,0h382.1c8.3,0,15.5-5.8,17.2-14l61.6-291.8c0.1-0.4,0.2-0.8,0.2-1.2       C1341.3,773.1,1341.4,772.2,1341.4,771.2z M1225.6,1154.2c0-25.4-20.7-46.1-46.1-46.1c-25.4,0-46.1,20.7-46.1,46.1       s20.7,46.1,46.1,46.1C1204.9,1200.4,1225.6,1179.7,1225.6,1154.2z M995.2,1154.2c0-25.4-20.7-46.1-46.1-46.1       c-25.4,0-46.1,20.7-46.1,46.1s20.7,46.1,46.1,46.1C974.5,1200.4,995.2,1179.7,995.2,1154.2z"/><path d="M1774.4,1331.2c9.7,0,17.6,7.9,17.6,17.6c0,60.5-23.6,117.4-66.3,160.2c-42.8,42.8-99.7,66.3-160.2,66.3H482.5       c-124.9,0-226.5-101.6-226.5-226.5c0-9.7,7.9-17.6,17.6-17.6h60.1v17.9c0,8.5,6.1,15.6,14.1,17.3H292       c8.9,97.3,91,173.8,190.5,173.8h1082.9c51.1,0,99.2-19.9,135.3-56c32-32,51.2-73.3,55.3-117.7h-55.8       c8.1-1.6,14.1-8.7,14.1-17.3v-17.9H1774.4z"/><path d="M1714.3,1331.2v17.9c0,8.5-6.1,15.6-14.1,17.3h-489.5l3.2-13.5c2.1-8.9-2.9-17.8-11.4-20.7c1.5-0.4,3-0.6,4.7-0.6       h471.9v-0.3H1714.3z"/><path d="M1714.3,519.6v811.6h-35.2V519.6c0-6.5-5.3-11.7-11.7-11.7H380.6c-6.5,0-11.7,5.3-11.7,11.7v811.6h-35.2V519.6       c0-25.9,21-46.9,46.9-46.9h1286.8C1693.3,472.7,1714.3,493.7,1714.3,519.6z"/><path d="M1210.7,1366.4h489.5c-1.1,0.2-2.3,0.3-3.5,0.3h-486.2L1210.7,1366.4z"/><path d="M1679.1,1331.2v0.3h-471.9c-1.6,0-3.2,0.2-4.7,0.6c-0.5-0.2-1.1-0.4-1.7-0.5c-1.4-0.3-2.7-0.5-4.1-0.5H1679.1z"/><path d="M1341.4,771.2c0,1-0.1,1.9-0.2,2.8c0,0.3-0.1,0.5-0.1,0.8l-0.1,0.4c-1.8,7.8-8.8,13.6-17.1,13.6h-21.7l4.5-21.2       c1.7-8,8.6-13.6,16.5-14h0.8c0.6,0,1.2,0,1.8,0.1c0.6,0.1,1.2,0.2,1.8,0.3c0.5,0.1,1,0.2,1.5,0.4c0,0,0,0,0.1,0       c0.5,0.2,1.1,0.4,1.6,0.6c0.3,0.1,0.5,0.2,0.8,0.4c0.5,0.2,1,0.5,1.5,0.8c0.5,0.3,1,0.6,1.4,1c0,0,0,0,0,0       c0.4,0.4,0.9,0.7,1.3,1.1c0.2,0.2,0.4,0.4,0.6,0.6s0.4,0.4,0.6,0.6c1.5,1.7,2.7,3.6,3.5,5.8c0.1,0.3,0.2,0.5,0.3,0.8       c0.1,0.5,0.3,1,0.4,1.5c0.1,0.2,0.1,0.5,0.1,0.7c0.1,0.4,0.1,0.9,0.2,1.3c0,0.3,0,0.6,0.1,0.9       C1341.4,770.6,1341.4,770.9,1341.4,771.2C1341.4,771.2,1341.4,771.2,1341.4,771.2z"/><path d="M1341.4,771.2c0-0.3,0-0.6,0-0.9C1341.4,770.6,1341.4,770.9,1341.4,771.2z"/><path d="M1341.3,770.3c0-0.3,0-0.6-0.1-0.9C1341.3,769.7,1341.3,770,1341.3,770.3z"/><path d="M1341,774.8c0.1-0.3,0.1-0.5,0.1-0.8c-0.1,0.4-0.1,0.8-0.2,1.2L1341,774.8z"/><path d="M1341.1,768.2c0-0.2-0.1-0.5-0.1-0.7C1341,767.7,1341.1,767.9,1341.1,768.2z"/><path d="M1340.9,775.2l-61.6,291.8c-1.7,8.1-8.9,14-17.2,14H879.9c1.1,0,2.1-0.1,3.2-0.4c9.5-2,15.6-11.3,13.6-20.8l-2.9-14       h354.1l54.3-257h21.7C1332.1,788.8,1339.1,783,1340.9,775.2z"/><path d="M1340.6,766c-0.1-0.3-0.2-0.5-0.3-0.8C1340.4,765.4,1340.5,765.7,1340.6,766z"/><path d="M1336.8,759.4c-0.2-0.2-0.4-0.4-0.6-0.6C1336.4,759,1336.6,759.2,1336.8,759.4z"/><path d="M1336.2,758.8c-0.2-0.2-0.4-0.4-0.6-0.6C1335.8,758.4,1336,758.6,1336.2,758.8z"/><path d="M1335.6,758.2c-0.4-0.4-0.8-0.7-1.3-1.1C1334.8,757.5,1335.2,757.8,1335.6,758.2z"/><path d="M1334.3,757.1c-0.5-0.3-0.9-0.7-1.4-1C1333.4,756.5,1333.9,756.8,1334.3,757.1z"/><path d="M1332.9,756.2c-0.5-0.3-1-0.6-1.5-0.8C1331.9,755.6,1332.4,755.9,1332.9,756.2z"/><path d="M1331.4,755.4c-0.3-0.1-0.5-0.2-0.8-0.4C1330.9,755.1,1331.2,755.2,1331.4,755.4z"/><path d="M1330.6,755c-0.5-0.2-1.1-0.4-1.6-0.6C1329.6,754.6,1330.1,754.8,1330.6,755z"/><path d="M1327.4,754c0.5,0.1,1,0.2,1.5,0.4C1328.4,754.2,1327.9,754.1,1327.4,754z"/><path d="M1323,753.6c0.8,0,1.7,0,2.6,0.1c-0.6-0.1-1.2-0.1-1.8-0.1H1323z"/><path d="M832.1,753.6H1323c-7.8,0.3-14.8,5.9-16.5,14l-4.5,21.2H839.5L832.1,753.6z"/><path d="M1202.5,1332.2c8.5,2.9,13.5,11.8,11.4,20.7l-3.2,13.5h-6.9c-8.1-1.6-14.1-8.7-14.1-17.3       C1189.6,1341,1195.1,1334.2,1202.5,1332.2z"/><path d="M1179.4,1108.1c25.4,0,46.1,20.7,46.1,46.1s-20.7,46.1-46.1,46.1c-25.4,0-46.1-20.7-46.1-46.1       S1154,1108.1,1179.4,1108.1z M1190.4,1154.2c0-6-4.9-10.9-10.9-10.9c-6,0-10.9,4.9-10.9,10.9s4.9,10.9,10.9,10.9       C1185.5,1165.2,1190.4,1160.3,1190.4,1154.2z"/><path d="M1210.7,1366.4l-0.1,0.3h-3.4c-1.2,0-2.3-0.1-3.5-0.3H1210.7z"/><path d="M1210.6,1366.7l-18.8,78.6c-1.9,7.9-9,13.5-17.1,13.5H873.3c-8.1,0-15.2-5.6-17.1-13.5l-18.8-78.6h3.4       c1.2,0,2.3-0.1,3.5-0.3h7c9.7,0,17.6-7.9,17.6-17.6c0-1.2-0.1-2.4-0.4-3.5l18.7,78.4h273.6l18.7-78.4c-0.2,1.1-0.4,2.3-0.4,3.5       c0,9.7,7.9,17.6,17.6,17.6h7c1.1,0.2,2.3,0.3,3.5,0.3H1210.6z"/><path d="M1203.7,1366.4h-7c-9.7,0-17.6-7.9-17.6-17.6c0-1.2,0.1-2.4,0.4-3.5l0.1-0.6c0.2-0.8,0.4-1.5,0.7-2.2       c0.3-0.7,0.6-1.4,0.9-2c0.2-0.4,0.5-0.9,0.8-1.3c0.1-0.2,0.3-0.4,0.4-0.6c0.3-0.4,0.6-0.8,0.9-1.2c0.3-0.4,0.6-0.7,1-1.1       c0.3-0.3,0.7-0.7,1.1-1c0.2-0.1,0.4-0.3,0.6-0.5s0.4-0.3,0.6-0.4c0.2-0.1,0.4-0.3,0.6-0.4c0.4-0.2,0.8-0.5,1.2-0.7       c0,0,0.1,0,0.1,0c0.6-0.3,1.3-0.6,1.9-0.9c1.5-0.6,3.1-1,4.8-1.2c0.2,0,0.5,0,0.7,0c0.3,0,0.6,0,0.9,0h0c1.3,0,2.7,0.2,4.1,0.5       c0.6,0.1,1.1,0.3,1.7,0.5c-7.4,2.1-12.9,8.9-12.9,17C1189.6,1357.7,1195.7,1364.8,1203.7,1366.4z"/><path d="M1196.8,1331.2c-0.3,0-0.6,0-0.9,0C1196.2,1331.2,1196.5,1331.2,1196.8,1331.2z"/><path d="M1195.9,1331.2c-0.2,0-0.5,0-0.7,0C1195.4,1331.3,1195.6,1331.2,1195.9,1331.2z"/><path d="M1188.4,1333.3c0.6-0.3,1.3-0.6,1.9-0.9C1189.7,1332.7,1189,1333,1188.4,1333.3z"/><path d="M1188.3,1333.4c-0.4,0.2-0.8,0.5-1.2,0.7C1187.5,1333.8,1187.9,1333.6,1188.3,1333.4z"/><path d="M1187.1,1334.1c-0.2,0.1-0.4,0.3-0.6,0.4C1186.7,1334.4,1186.9,1334.2,1187.1,1334.1z"/><path d="M1186.5,1334.5c-0.2,0.1-0.4,0.3-0.6,0.4C1186.2,1334.8,1186.3,1334.6,1186.5,1334.5z"/><path d="M1186,1334.9c-0.2,0.1-0.4,0.3-0.6,0.5C1185.6,1335.2,1185.8,1335.1,1186,1334.9z"/><path d="M1184.3,1336.4c0.3-0.3,0.7-0.7,1.1-1C1185,1335.7,1184.7,1336,1184.3,1336.4z"/><path d="M1184.3,1336.4c-0.3,0.3-0.7,0.7-1,1.1C1183.7,1337.1,1184,1336.7,1184.3,1336.4z"/><path d="M1183.4,1337.4c-0.3,0.4-0.6,0.8-0.9,1.2C1182.7,1338.2,1183,1337.8,1183.4,1337.4z"/><path d="M1182.5,1338.6c-0.1,0.2-0.3,0.4-0.4,0.6C1182.2,1339,1182.3,1338.8,1182.5,1338.6z"/><path d="M1182.1,1339.2c-0.3,0.4-0.5,0.8-0.8,1.3C1181.5,1340,1181.8,1339.6,1182.1,1339.2z"/><path d="M1181.3,1340.5c-0.4,0.6-0.7,1.3-0.9,2C1180.6,1341.8,1180.9,1341.1,1181.3,1340.5z"/><path d="M949.1,1108.1c25.4,0,46.1,20.7,46.1,46.1s-20.7,46.1-46.1,46.1c-25.4,0-46.1-20.7-46.1-46.1       S923.7,1108.1,949.1,1108.1z M960,1154.2c0-6-4.9-10.9-10.9-10.9c-6,0-10.9,4.9-10.9,10.9s4.9,10.9,10.9,10.9       C955.1,1165.2,960,1160.3,960,1154.2z"/><path d="M896.7,1059.8c2,9.5-4.1,18.8-13.6,20.8c-1.1,0.2-2.1,0.4-3.2,0.4h-0.4c-1.3,0-2.5-0.1-3.8-0.4       c-0.7-0.2-1.5-0.4-2.2-0.6c-0.9-0.3-1.8-0.7-2.6-1.2c0,0-0.1,0-0.1,0c-0.2-0.1-0.4-0.2-0.6-0.4c-0.8-0.5-1.6-1.1-2.4-1.7       c-0.4-0.3-0.7-0.7-1.1-1c-0.2-0.2-0.3-0.4-0.5-0.5c-0.6-0.7-1.2-1.5-1.7-2.3c-0.3-0.5-0.5-0.9-0.8-1.4       c-0.1-0.2-0.2-0.4-0.3-0.7s-0.2-0.5-0.3-0.7c-0.1-0.2-0.2-0.5-0.3-0.7c-0.3-0.7-0.5-1.5-0.6-2.2l-61.5-291.4       c1.9,7.6,8.8,13.2,17,13.2h21.7l54.3,257L896.7,1059.8z"/><path d="M879.9,1081c-0.1,0-0.3,0-0.5,0c-1.3,0-2.5-0.1-3.7-0.4c1.2,0.3,2.5,0.4,3.8,0.4H879.9z"/><path d="M873.6,1080c-0.9-0.3-1.8-0.7-2.6-1.2C871.8,1079.2,872.6,1079.6,873.6,1080z"/><path d="M870.2,1078.3c0.2,0.1,0.4,0.3,0.6,0.4C870.6,1078.6,870.4,1078.5,870.2,1078.3z"/><path d="M868.5,1345.3c0.2,1.1,0.4,2.3,0.4,3.5c0,9.7-7.9,17.6-17.6,17.6h-7c8.1-1.6,14.1-8.7,14.1-17.3       c0-8.1-5.5-14.9-12.9-17c0.5-0.2,1.1-0.4,1.7-0.5c1.4-0.3,2.7-0.5,4.1-0.5h0c0.3,0,0.6,0,0.9,0c0.2,0,0.5,0,0.7,0       c1.7,0.2,3.3,0.6,4.8,1.2c0.7,0.3,1.3,0.6,1.9,0.9c0,0,0,0,0.1,0c0.4,0.2,0.8,0.5,1.2,0.7c0.2,0.1,0.4,0.3,0.6,0.4       c0.2,0.1,0.4,0.3,0.6,0.4c0.2,0.1,0.4,0.3,0.6,0.5c0.4,0.3,0.7,0.6,1.1,1c0.3,0.3,0.7,0.7,1,1.1c0.3,0.4,0.6,0.8,0.9,1.2       c0.1,0.2,0.3,0.4,0.4,0.6c0.3,0.4,0.5,0.8,0.8,1.3c0.4,0.6,0.7,1.3,0.9,2c0.3,0.7,0.5,1.5,0.7,2.2L868.5,1345.3z"/><path d="M866.8,1075.6c0.3,0.4,0.7,0.7,1.1,1C867.5,1076.3,867.1,1075.9,866.8,1075.6z"/><path d="M866.7,1340.5c0.4,0.6,0.7,1.3,0.9,2C867.4,1341.8,867.1,1341.1,866.7,1340.5z"/><path d="M866.7,1340.5c-0.2-0.4-0.5-0.9-0.8-1.3C866.2,1339.6,866.5,1340,866.7,1340.5z"/><path d="M865.9,1339.2c-0.1-0.2-0.3-0.4-0.4-0.6C865.7,1338.8,865.8,1339,865.9,1339.2z"/><path d="M865.5,1338.6c-0.3-0.4-0.6-0.8-0.9-1.2C865,1337.8,865.3,1338.2,865.5,1338.6z"/><path d="M866.3,1075c-0.6-0.7-1.2-1.5-1.7-2.3C865.1,1073.5,865.7,1074.3,866.3,1075z"/><path d="M863.7,1336.4c0.4,0.3,0.7,0.7,1,1.1C864.3,1337.1,864,1336.7,863.7,1336.4z"/><path d="M863.5,1070.7c0.1,0.2,0.2,0.4,0.3,0.7C863.7,1071.1,863.6,1070.9,863.5,1070.7z"/><path d="M862.6,1335.4c0.4,0.3,0.7,0.6,1.1,1C863.3,1336,863,1335.7,862.6,1335.4z"/><path d="M862.9,1069.3c0.1,0.2,0.2,0.5,0.3,0.7C863.1,1069.8,863,1069.5,862.9,1069.3z"/><path d="M862.6,1335.4c-0.2-0.1-0.4-0.3-0.6-0.5C862.2,1335.1,862.4,1335.2,862.6,1335.4z"/><path d="M862,1334.9c-0.2-0.1-0.4-0.3-0.6-0.4C861.7,1334.6,861.8,1334.8,862,1334.9z"/><path d="M861.5,1334.5c-0.2-0.1-0.4-0.3-0.6-0.4C861.1,1334.2,861.3,1334.4,861.5,1334.5z"/><path d="M859.7,1333.4c0.4,0.2,0.8,0.5,1.2,0.7C860.5,1333.8,860.1,1333.6,859.7,1333.4z"/><path d="M859.6,1333.3c-0.6-0.3-1.3-0.6-1.9-0.9C858.3,1332.7,859,1333,859.6,1333.3z"/><path d="M845.5,1332.2c7.4,2.1,12.9,8.9,12.9,17c0,8.5-6.1,15.6-14.1,17.3h-6.9l-3.2-13.5C832,1344,837,1335.1,845.5,1332.2z"/><path d="M852.9,1331.3c-0.2,0-0.5,0-0.7,0C852.4,1331.2,852.6,1331.3,852.9,1331.3z"/><path d="M852.1,1331.2c-0.3,0-0.6,0-0.9,0C851.5,1331.2,851.8,1331.2,852.1,1331.2z"/><path d="M368.9,1331.2h482.4c-1.3,0-2.7,0.2-4.1,0.5c-0.6,0.1-1.1,0.3-1.7,0.5c-1.5-0.4-3-0.6-4.7-0.6H368.9V1331.2z"/><path d="M837.3,1366.4h6.9c-1.1,0.2-2.3,0.3-3.5,0.3h-3.4L837.3,1366.4z"/><path d="M840.8,1331.5c1.6,0,3.2,0.2,4.7,0.6c-8.5,2.9-13.5,11.8-11.4,20.7l3.2,13.5H347.8c-8.1-1.6-14.1-8.7-14.1-17.3v-17.9       h35.2v0.3H840.8z"/><path d="M832.1,753.6l7.4,35.2h-21.7c-8.2,0-15.1-5.6-17-13.2c0,0,0,0,0,0l-0.3-1.4c-0.2-1-0.2-1.9-0.2-2.9       c0-9.7,7.9-17.6,17.6-17.6H832.1z"/><path d="M837.3,1366.4l0.1,0.3H351.3c-1.2,0-2.3-0.1-3.5-0.3H837.3z"/><path d="M822,705.7l10.1,47.9h-14.3c-9.7,0-17.6,7.9-17.6,17.6c0,1,0.1,2,0.2,2.9l-10-47.2l-2.9-14c-2-9.5,4.1-18.8,13.6-20.8       c1.2-0.3,2.4-0.4,3.6-0.4c0.3,0,0.5,0,0.8,0c0.5,0,0.9,0.1,1.4,0.1c0.5,0.1,1.1,0.2,1.6,0.3c0.5,0.1,1,0.2,1.4,0.4       c1.2,0.4,2.3,0.9,3.4,1.5c0.2,0.1,0.4,0.2,0.6,0.4c0.6,0.4,1.2,0.8,1.8,1.3c0.2,0.1,0.4,0.3,0.6,0.5c0.6,0.5,1.2,1.1,1.8,1.8       c0.1,0.1,0.2,0.3,0.3,0.4c0.8,1,1.6,2.1,2.1,3.3c0.1,0.1,0.1,0.3,0.2,0.5c0.1,0.2,0.2,0.5,0.3,0.7c0.1,0.2,0.2,0.5,0.3,0.7       C821.6,704.2,821.8,705,822,705.7z"/><path d="M821.1,702.8c0.1,0.2,0.2,0.5,0.3,0.7C821.3,703.3,821.2,703,821.1,702.8z"/><path d="M820.8,702.1c-0.1-0.2-0.1-0.3-0.2-0.5C820.6,701.8,820.7,702,820.8,702.1z"/><path d="M818.4,698.3c-0.1-0.1-0.2-0.3-0.3-0.4C818.2,698,818.3,698.2,818.4,698.3z"/><path d="M815.8,695.7c0.2,0.1,0.4,0.3,0.6,0.5C816.1,696,816,695.8,815.8,695.7z"/><path d="M814,694.4c-0.2-0.1-0.4-0.2-0.6-0.4C813.5,694.1,813.8,694.3,814,694.4z"/><path d="M809.9,692.6c-0.5-0.1-1-0.3-1.4-0.4C809,692.3,809.5,692.4,809.9,692.6z"/><path d="M806.9,691.9c-0.5-0.1-0.9-0.1-1.4-0.1C806,691.8,806.4,691.9,806.9,691.9z"/><path d="M724.2,691.8h80.5c-1.2,0-2.4,0.1-3.6,0.4c-9.5,2-15.6,11.3-13.6,20.8l2.9,14h-66.3c-9.7,0-17.6-7.9-17.6-17.6       C706.6,699.7,714.5,691.8,724.2,691.8z"/><path d="M800.5,774.2l0.3,1.4C800.6,775.1,800.5,774.6,800.5,774.2z"/></g></g></g></g></g></svg>