<?xml version="1.0" ?><!DOCTYPE svg  PUBLIC '-//W3C//DTD SVG 1.1//EN'  'http://www.w3.org/Graphics/SVG/1.1/DTD/svg11.dtd'><svg enable-background="new 0 0 87 56" height="56px" id="Layer_1" version="1.1" viewBox="0 0 87 56" width="87px" xml:space="preserve" xmlns="http://www.w3.org/2000/svg" xmlns:xlink="http://www.w3.org/1999/xlink"><g><path d="M86,52.636C86,53.941,84.84,55,83.407,55H3.593C2.161,55,1,53.941,1,52.636V3.365C1,2.059,2.161,1,3.593,1   h79.814C84.84,1,86,2.059,86,3.365V52.636z" fill="#F1F2F2"/><g><g><path d="M55.654,20.684c0,0.322-0.262,0.582-0.582,0.582h-6.523c-0.32,0-0.582-0.26-0.582-0.582v-1.64     c0-0.322,0.262-0.583,0.582-0.583h6.523c0.32,0,0.582,0.261,0.582,0.583V20.684z" fill="#C30000"/><path d="M65.054,20.684c0,0.322-0.261,0.582-0.583,0.582h-6.52c-0.323,0-0.583-0.26-0.583-0.582v-1.64     c0-0.322,0.26-0.583,0.583-0.583h6.52c0.322,0,0.583,0.261,0.583,0.583V20.684z" fill="#C30000"/><g><path d="M55.654,28.014c0,0.358-0.307,0.649-0.688,0.649h-5.584c-0.381,0-0.688-0.291-0.688-0.649v-5.515      c0-0.359,0.307-0.649,0.688-0.649h5.584c0.381,0,0.688,0.291,0.688,0.649V28.014z" fill="#C30000"/><path d="M64.325,28.014c0,0.358-0.308,0.649-0.688,0.649h-5.582c-0.381,0-0.688-0.291-0.688-0.649v-5.515      c0-0.359,0.307-0.649,0.688-0.649h5.582c0.381,0,0.688,0.291,0.688,0.649V28.014z" fill="#C30000"/></g></g><path d="M60.848,12.609c0,0-0.496-3.181-2.597-1.082c-0.793,0.794-1.375,1.91-1.739,2.993    c-0.365-1.083-0.947-2.199-1.74-2.993c-2.101-2.099-2.597,1.082-2.597,1.082s-4.142,1.456-2.042,3.555s5.213,1.824,6.379,1.824    c1.165,0,4.277,0.275,6.376-1.824C64.986,14.064,60.848,12.609,60.848,12.609z M55.58,16.61c-0.396,0.395-2.255,0.477-3.491-0.759    c-1.235-1.236,1.317-2.247,1.317-2.247s0.178-1.72,1.414-0.483C56.057,14.357,55.988,16.201,55.58,16.61z M60.932,15.852    c-1.234,1.236-3.094,1.153-3.488,0.759c-0.408-0.41-0.478-2.253,0.76-3.489c1.236-1.236,1.412,0.483,1.412,0.483    S62.168,14.615,60.932,15.852z" fill="#C30000"/></g><path d="M37.649,35.314h1.666v6.412c0,0.617-0.078,1.153-0.233,1.605c-0.155,0.453-0.431,0.893-0.826,1.313   c-0.391,0.404-0.852,0.723-1.381,0.953c-0.527,0.23-1.071,0.346-1.625,0.346c-0.534,0-1.054-0.103-1.561-0.308   c-0.506-0.202-0.954-0.497-1.34-0.876c-0.386-0.379-0.672-0.816-0.854-1.314h2.065c0.2,0.214,0.458,0.388,0.776,0.521   c0.318,0.136,0.623,0.205,0.916,0.205c0.311,0,0.616-0.054,0.916-0.163s0.559-0.265,0.776-0.47c0.244-0.226,0.41-0.458,0.496-0.696   s0.164-0.568,0.23-0.994l-0.033-0.027c-0.667,0.865-1.471,1.299-2.414,1.299c-0.317,0-0.637-0.051-0.964-0.148   c-0.328-0.102-0.644-0.242-0.95-0.423c-0.307-0.183-0.572-0.388-0.793-0.612c-0.236-0.25-0.441-0.537-0.618-0.865   c-0.175-0.324-0.305-0.661-0.39-1.006c-0.084-0.349-0.126-0.707-0.126-1.08c0-0.484,0.089-0.955,0.266-1.41   c0.178-0.454,0.427-0.861,0.747-1.221c0.361-0.399,0.792-0.713,1.291-0.939c0.501-0.227,1.026-0.341,1.578-0.341   c0.52,0,0.991,0.106,1.41,0.323c0.42,0.215,0.737,0.535,0.951,0.957h0.026v-1.039H37.649z M37.609,39.123   c0-0.323-0.059-0.628-0.176-0.911c-0.117-0.28-0.276-0.521-0.476-0.72c-0.2-0.201-0.438-0.358-0.716-0.475   c-0.277-0.113-0.576-0.172-0.896-0.172c-0.595,0-1.108,0.221-1.539,0.665c-0.204,0.212-0.354,0.448-0.453,0.706   c-0.098,0.258-0.147,0.536-0.147,0.84c0,0.43,0.098,0.818,0.294,1.168c0.195,0.349,0.467,0.625,0.815,0.823   c0.349,0.198,0.738,0.3,1.169,0.3c0.298,0,0.578-0.063,0.843-0.187c0.265-0.125,0.492-0.291,0.683-0.499   c0.191-0.211,0.338-0.447,0.443-0.714C37.557,39.684,37.609,39.407,37.609,39.123z" fill="#C30000"/><path d="M40.727,42.873v-7.559h1.812v7.559H40.727z M40.913,34.445v-1.312h1.446v1.312H40.913z" fill="#C30000"/><path d="M44.044,42.873v-5.947h-0.646v-1.611h0.646c0.014-0.373,0.075-0.722,0.188-1.037   c0.11-0.316,0.271-0.603,0.485-0.854c0.214-0.254,0.475-0.452,0.784-0.601c0.308-0.146,0.646-0.219,1.009-0.219l0.493,0.025v1.799   c-0.284,0-0.501,0.018-0.647,0.055c-0.15,0.035-0.267,0.115-0.348,0.238c-0.083,0.125-0.133,0.321-0.151,0.594h1.053v1.611h-1.053   v5.947H44.044z" fill="#C30000"/><path d="M48.096,42.873v-5.947h-0.893v-1.611h0.893v-2.52h1.813v2.52h1.093v1.611h-1.093v5.947H48.096z" fill="#C30000"/><path d="M57.333,40.416h2.044c-0.168,0.537-0.441,1.007-0.816,1.415c-0.375,0.405-0.82,0.724-1.338,0.948   c-0.515,0.229-1.048,0.34-1.6,0.34c-0.512,0-1.02-0.102-1.52-0.307c-0.504-0.203-0.937-0.479-1.295-0.824   c-0.41-0.396-0.718-0.846-0.926-1.354c-0.206-0.508-0.309-1.037-0.309-1.592c0-0.547,0.104-1.061,0.313-1.539   s0.5-0.904,0.873-1.273c0.373-0.366,0.805-0.652,1.299-0.855c0.49-0.201,1.008-0.303,1.549-0.303c0.559,0,1.096,0.115,1.613,0.349   c0.522,0.229,0.973,0.554,1.354,0.972c0.383,0.418,0.649,0.896,0.801,1.434h-2.044c-0.393-0.652-0.975-0.979-1.747-0.979   c-0.426,0-0.806,0.094-1.136,0.287c-0.331,0.193-0.59,0.463-0.773,0.805c-0.185,0.343-0.275,0.719-0.275,1.131   c0,0.432,0.097,0.82,0.289,1.169c0.193,0.349,0.467,0.622,0.817,0.817c0.353,0.194,0.74,0.293,1.172,0.293   c0.218,0,0.431-0.037,0.642-0.113c0.207-0.076,0.398-0.186,0.574-0.324S57.217,40.605,57.333,40.416z" fill="#676767"/><path d="M68.302,35.314v7.559h-1.671v-1.025h-0.027c-0.274,0.387-0.65,0.695-1.129,0.928   c-0.479,0.229-0.955,0.345-1.436,0.345c-0.563,0-1.083-0.109-1.559-0.332c-0.475-0.222-0.883-0.535-1.226-0.938   c-0.631-0.754-0.946-1.674-0.946-2.752c0-0.337,0.032-0.668,0.098-0.99c0.063-0.322,0.166-0.621,0.307-0.897   c0.141-0.278,0.33-0.554,0.57-0.83c0.381-0.442,0.805-0.771,1.273-0.983c0.469-0.215,0.98-0.321,1.535-0.321   c0.52,0,0.998,0.112,1.438,0.335c0.436,0.222,0.805,0.546,1.102,0.971v-1.063h1.671V35.314z M66.57,39.084   c0-0.32-0.055-0.617-0.16-0.891c-0.105-0.274-0.254-0.51-0.445-0.709c-0.189-0.199-0.422-0.358-0.689-0.471   c-0.271-0.113-0.564-0.168-0.879-0.168c-0.66,0-1.201,0.217-1.627,0.652c-0.424,0.438-0.635,0.994-0.635,1.664   c0,0.613,0.221,1.13,0.658,1.552c0.439,0.423,0.964,0.634,1.576,0.634c0.427,0,0.808-0.102,1.145-0.299   c0.336-0.197,0.598-0.469,0.781-0.813S66.57,39.509,66.57,39.084z" fill="#676767"/><path d="M69.654,42.873v-7.559H71.3v0.685h0.026c0.205-0.328,0.435-0.565,0.689-0.71   c0.256-0.146,0.567-0.217,0.937-0.217h0.14v1.76c-0.436,0-0.804,0.117-1.104,0.354c-0.161,0.127-0.28,0.272-0.354,0.437   c-0.075,0.161-0.124,0.329-0.142,0.503s-0.025,0.398-0.025,0.673v4.076L69.654,42.873L69.654,42.873z" fill="#676767"/><path d="M81.638,32.795v10.078H79.98v-1.025h-0.033c-0.17,0.271-0.387,0.504-0.651,0.693s-0.555,0.334-0.873,0.434   c-0.317,0.096-0.646,0.146-0.981,0.146c-0.535,0-1.037-0.111-1.508-0.341c-0.472-0.225-0.882-0.535-1.228-0.932   c-0.313-0.359-0.565-0.781-0.75-1.267c-0.187-0.483-0.276-0.97-0.276-1.458c0-1.075,0.342-1.998,1.026-2.77   c0.228-0.254,0.491-0.479,0.793-0.676c0.302-0.195,0.623-0.345,0.961-0.449s0.683-0.156,1.033-0.156   c0.284,0,0.569,0.039,0.856,0.115c0.286,0.073,0.557,0.188,0.807,0.342c0.252,0.152,0.476,0.341,0.671,0.563v-3.298L81.638,32.795   L81.638,32.795z M79.945,39.084c0-0.314-0.059-0.607-0.176-0.88c-0.119-0.271-0.278-0.506-0.479-0.706   c-0.203-0.199-0.442-0.359-0.724-0.477c-0.278-0.117-0.572-0.176-0.879-0.176c-0.281,0-0.553,0.055-0.813,0.168   c-0.264,0.111-0.497,0.272-0.707,0.479c-0.208,0.206-0.372,0.446-0.489,0.717c-0.118,0.271-0.177,0.549-0.177,0.833   c0,0.407,0.096,0.79,0.287,1.145c0.191,0.356,0.454,0.639,0.792,0.848c0.337,0.209,0.716,0.313,1.132,0.313   c0.403,0,0.778-0.103,1.124-0.308c0.345-0.203,0.613-0.479,0.812-0.825C79.848,39.87,79.945,39.492,79.945,39.084z" fill="#676767"/><path d="M31.178,16.842c-0.032-2.105-1.358-3.768-2.63-4.595c-1.703-0.975-2.412-1.239-3.058-1.485   c0,0,0.001,0.001,0.002,0.001c-0.437-0.181-0.799-0.218-1.18-0.218c-0.044,0-0.091,0.001-0.136,0.001   c-1.703,0.024-3.045,0.831-4.208,1.822c-0.236,0.187-0.729,0.65-1.317,1.221V1h-3.365v12.577c-0.582-0.564-1.07-1.023-1.304-1.208   c-1.163-0.991-2.506-1.798-4.208-1.822c-0.046,0-0.092-0.001-0.135-0.001c-0.396,0-0.771,0.039-1.232,0.239   c0.013-0.006,0.027-0.017,0.041-0.022c-0.646,0.246-1.355,0.51-3.059,1.485c-1.271,0.827-2.598,2.49-2.63,4.595   c0,0.001-0.006,0.232-0.006,0.298c0,0.101,0,0.003,0,0.114c0,0.082,0.006,0.202,0.006,0.204c0.032,2.104,1.358,3.769,2.63,4.595   c1.704,0.974,2.413,1.238,3.059,1.483c-0.011-0.005-0.022-0.013-0.034-0.019c0.458,0.198,0.831,0.237,1.226,0.237   c0.043,0,0.089-0.001,0.135-0.001c1.703-0.023,3.046-0.831,4.208-1.822c0.233-0.185,0.723-0.645,1.303-1.209v0.529   c-1.599,3.408-4.272,8.581-7.661,13.124l3.222-1.221l-0.222,7.033l4.661-12.295V55h3.365V28.053l4.6,12.134l-0.222-7.033   l3.222,1.221c-3.343-4.482-5.994-9.583-7.6-12.991v-0.676c0.589,0.572,1.083,1.036,1.319,1.223   c1.162,0.992,2.504,1.799,4.208,1.822c0.045,0,0.092,0.001,0.136,0.001c0.388,0,0.756-0.039,1.205-0.229   c0.639-0.243,1.351-0.513,3.031-1.473c1.272-0.827,2.598-2.491,2.63-4.595c0-0.001,0.006-0.122,0.006-0.204c0-0.11,0-0.013,0-0.114   C31.185,17.074,31.178,16.843,31.178,16.842z M11.507,20.426c-1.961,1.456-3.27,1.807-4.47,1.685   c-0.885-1.346-1.644-3.342-1.661-4.908c0-0.018,0-0.036,0-0.053c0-0.019,0-0.036,0-0.053c0.018-1.565,0.776-3.562,1.661-4.908   c1.2-0.123,2.509,0.229,4.471,1.686c0.694,0.515,2.22,1.977,3.542,3.275C13.728,18.447,12.202,19.91,11.507,20.426z M28.56,17.15   c0,0.017,0,0.035,0,0.053c-0.018,1.566-0.777,3.563-1.663,4.91c-1.194,0.117-2.5-0.238-4.453-1.687   c-0.694-0.516-2.221-1.979-3.542-3.276c1.321-1.298,2.848-2.76,3.542-3.275c1.953-1.45,3.258-1.805,4.454-1.687   c0.886,1.346,1.645,3.343,1.662,4.909C28.56,17.114,28.56,17.131,28.56,17.15z" fill="#C30000"/></g></svg>