<?xml version="1.0" ?><svg height="48" viewBox="0 0 48 48" width="48" xmlns="http://www.w3.org/2000/svg"><defs><style>.cls-1{fill:#fed049;}.cls-2{fill:#f6b445;}.cls-3{fill:#d0d7df;}.cls-4{fill:#35dc86;}.cls-5{fill:#474c54;}</style></defs><title/><g data-name="16-Credit Card" id="_16-Credit_Card"><g data-name="&lt;Group&gt;" id="_Group_"><path class="cls-1" d="M47,28v2a4,4,0,0,1-4,4H5a4,4,0,0,1-4-4V6A4,4,0,0,1,5,2H43a4,4,0,0,1,4,4Z"/><rect class="cls-2" height="5" width="36" x="6" y="23"/></g><g data-name="&lt;Group&gt;" id="_Group_2"><rect class="cls-3" height="4" rx="1" ry="1" width="8" x="34" y="8"/><circle class="cls-3" cx="9" cy="10" r="3"/></g><circle class="cls-4" cx="32" cy="31" r="15"/><path class="cls-5" d="M43,1H5A5.006,5.006,0,0,0,0,6V30a5.006,5.006,0,0,0,5,5h8a1,1,0,0,0,0-2H5a3,3,0,0,1-3-3V6A3,3,0,0,1,5,3H43a3,3,0,0,1,3,3V31a14,14,0,1,1-3.5-9.261A1,1,0,0,0,44,20.416,16,16,0,1,0,48,31V6A5.006,5.006,0,0,0,43,1Z"/><path class="cls-5" d="M6,29h6a1,1,0,0,0,0-2H6a1,1,0,0,0,0,2Z"/><path class="cls-5" d="M9,14a4,4,0,1,0-4-4A4,4,0,0,0,9,14ZM9,8a2,2,0,1,1-2,2A2,2,0,0,1,9,8Z"/><path class="cls-5" d="M41,13a2,2,0,0,0,2-2V9a2,2,0,0,0-2-2H35a2,2,0,0,0-2,2v2a2,2,0,0,0,2,2ZM35,9h6v2H35Z"/><path class="cls-5" d="M6,24H9a1,1,0,0,0,0-2H6a1,1,0,0,0,0,2Z"/><path class="cls-5" d="M14,22H13a1,1,0,0,0,0,2h1a1,1,0,0,0,0-2Z"/><path class="cls-5" d="M39.293,25.293,29,35.586l-3.293-3.293a1,1,0,0,0-1.414,1.414l4,4a1,1,0,0,0,1.414,0l11-11a1,1,0,0,0-1.414-1.414Z"/></g></svg>