<?xml version="1.0" ?><!DOCTYPE svg  PUBLIC '-//W3C//DTD SVG 1.1//EN'  'http://www.w3.org/Graphics/SVG/1.1/DTD/svg11.dtd'><svg enable-background="new 0 0 128 128" id="Layer_1" version="1.1" viewBox="0 0 128 128" xml:space="preserve" xmlns="http://www.w3.org/2000/svg" xmlns:xlink="http://www.w3.org/1999/xlink"><circle cx="64" cy="64" fill="#4B5F83" id="circle" r="64"/><g id="icon"><g id="bottom"><polygon fill="#22A7F0" id="base" points="79.2,62 49,62 43,76.5 43,87 84,87 84,76.5   "/><circle cx="64" cy="74" fill="#FFFFFF" id="circle_5_" r="9"/><circle cx="63.8" cy="70.1" fill="#22313F" id="circle_4_" r="2"/><circle cx="63.8" cy="78.1" fill="#22313F" id="circle_2_" r="2"/><circle cx="59.8" cy="74.1" fill="#22313F" id="circle_1_" r="2"/><rect fill="#22313F" height="4" id="square_1_" width="4" x="71" y="58"/><rect fill="#22313F" height="4" id="square" width="4" x="52.8" y="58"/></g><path d="M95,46.5l-6.4-1.7c-14.6-4.5-30.1-4.9-44.9-1.1l0,0l-0.8,0.2c-0.3,0.1-0.6,0.2-0.9,0.2l-9,2.4   c-6.4,1.7-10.2,8.3-8.5,14.7c1.2,4.3,5.5,6.8,9.8,5.6l6.8-1.8c4.3-1.2,6.8-5.5,5.6-9.8l-0.5-1.9c11.6-2.9,23.8-2.9,35.5,0l-0.5,2   c-1.2,4.3,1.4,8.7,5.6,9.8l6.8,1.8c4.3,1.2,8.7-1.4,9.8-5.6C105.1,54.8,101.4,48.2,95,46.5z" fill="#22313F" id="top"/></g></svg>