<?xml version="1.0" ?><svg id="Layer_1" style="enable-background:new 0 0 50 50;" version="1.1" viewBox="0 0 50 50" xml:space="preserve" xmlns="http://www.w3.org/2000/svg" xmlns:xlink="http://www.w3.org/1999/xlink"><style type="text/css">
	.st0{fill:#F0C4DB;}
	.st1{fill:#FF9D9C;}
	.st2{fill:#9BEAF9;}
	.st3{fill:#E9F4BC;}
	.st4{fill:#505050;}
	.st5{fill:#FEBECC;}
	.st6{fill:#FFFFFF;}
	.st7{fill:#FDE4A1;}
	.st8{fill:#FEE7B5;}
	.st9{fill:#CDF6FC;}
	.st10{fill:#F2C6DD;}
	.st11{opacity:0.1;}
</style><g><path class="st9" d="M19.86,2.88c0,11.6,9.4,21,21,21c2.84,0,5.54-0.57,8.01-1.59V1.88H19.91C19.9,2.21,19.86,2.54,19.86,2.88z"/><g><polygon class="st6" points="2.06,4.38 2.06,47.37 33.58,47.37 33.58,40.71 33.58,28.7 33.58,4.38   "/><rect class="st2" height="11.45" width="9.1" x="6.24" y="7.62"/><polygon class="st7" points="28.55,44.1 34.19,40.29 28.89,37.3   "/><polygon class="st1" points="45.69,20.15 44.88,19.7 40.16,17.03 28.9,37 28.89,37.3 34.19,40.29 34.44,40.12   "/><path class="st7" d="M45.69,20.15l1.58-2.81c0.86-1.53,0.32-3.47-1.21-4.33c-1.53-0.86-3.47-0.32-4.33,1.21l-1.58,2.81l4.73,2.66    L45.69,20.15z"/><g><circle class="st4" cx="1.88" cy="41.55" r="0.75"/><path class="st4" d="M6.05,27.13h23.16c0.41,0,0.75-0.34,0.75-0.75s-0.34-0.75-0.75-0.75H6.05c-0.41,0-0.75,0.34-0.75,0.75     S5.64,27.13,6.05,27.13z"/><path class="st4" d="M6.05,30.93h23.16c0.41,0,0.75-0.34,0.75-0.75s-0.34-0.75-0.75-0.75H6.05c-0.41,0-0.75,0.34-0.75,0.75     S5.64,30.93,6.05,30.93z"/><path class="st4" d="M6.05,23.34h23.16c0.41,0,0.75-0.34,0.75-0.75s-0.34-0.75-0.75-0.75H6.05c-0.41,0-0.75,0.34-0.75,0.75     S5.64,23.34,6.05,23.34z"/><path class="st4" d="M6.05,34.73h16.21c0.41,0,0.75-0.34,0.75-0.75s-0.34-0.75-0.75-0.75H6.05c-0.41,0-0.75,0.34-0.75,0.75     S5.64,34.73,6.05,34.73z"/><path class="st4" d="M6.05,38.52h16.21c0.41,0,0.75-0.34,0.75-0.75s-0.34-0.75-0.75-0.75H6.05c-0.41,0-0.75,0.34-0.75,0.75     S5.64,38.52,6.05,38.52z"/><path class="st4" d="M6.05,42.32h16.21c0.41,0,0.75-0.34,0.75-0.75s-0.34-0.75-0.75-0.75H6.05c-0.41,0-0.75,0.34-0.75,0.75     S5.64,42.32,6.05,42.32z"/><path class="st4" d="M6.05,19.82h9.1c0.41,0,0.75-0.34,0.75-0.75V7.62c0-0.41-0.34-0.75-0.75-0.75h-9.1     c-0.41,0-0.75,0.34-0.75,0.75v11.45C5.3,19.48,5.64,19.82,6.05,19.82z M6.8,8.37h7.6v9.95H6.8V8.37z"/><path class="st4" d="M48.24,20.54l-1.59-0.9l1.09-1.94c1.06-1.89,0.39-4.29-1.49-5.35c-0.91-0.52-1.97-0.64-2.98-0.36     c-1.01,0.28-1.85,0.94-2.37,1.85l-1.46,2.59c0,0,0,0,0,0s0,0,0,0l-5.3,9.4L34.13,4.38c0-0.2-0.07-0.39-0.22-0.54     c-0.14-0.14-0.32-0.21-0.53-0.21H1.88c-0.2,0-0.39,0.08-0.53,0.21C1.2,3.98,1.13,4.18,1.13,4.38v35.17     c0,0.41,0.34,0.75,0.75,0.75c0.41,0,0.75-0.34,0.75-0.75V5.12h29.02c0.02,0.01,0.04,0.01,0.07,0h0.92l0.01,23.38l-4.58,8.13     c-0.06,0.1-0.08,0.2-0.09,0.31c0,0.01-0.01,0.01-0.01,0.02l-0.35,7.1c-0.01,0.28,0.13,0.55,0.38,0.69     c0.11,0.06,0.24,0.1,0.37,0.1c0.15,0,0.29-0.04,0.42-0.13l3.87-2.61v4.51H2.63v-3.07c0-0.41-0.34-0.75-0.75-0.75     c-0.41,0-0.75,0.34-0.75,0.75v3.82c0,0.2,0.08,0.39,0.22,0.53c0.14,0.14,0.33,0.22,0.53,0.22h31.51c0.21,0,0.39-0.08,0.53-0.22     c0.15-0.14,0.22-0.33,0.22-0.53v-6.27l0.54-0.36c0.1-0.07,0.18-0.15,0.23-0.25l11.01-19.54l0.94,0.53l-7.7,13.66     c-0.2,0.36-0.08,0.82,0.29,1.02c0.12,0.07,0.24,0.1,0.37,0.1c0.26,0,0.52-0.14,0.65-0.38l8.07-14.31     C48.73,21.2,48.6,20.75,48.24,20.54z M42.21,14.59c0.32-0.56,0.84-0.97,1.46-1.15c0.63-0.17,1.28-0.09,1.84,0.22     c1.17,0.66,1.58,2.14,0.92,3.31l-1.09,1.93l-4.23-2.38L42.21,14.59z M29.4,38.25l3.42,1.93l-3.64,2.46L29.4,38.25z M33.97,39.1     l-4.23-2.38l10.64-18.89l4.23,2.38L33.97,39.1z"/><path class="st4" d="M10.6,11.12c0.41,0,0.74,0.33,0.74,0.74c0,0.41,0.34,0.75,0.75,0.75s0.75-0.34,0.75-0.75     c0-0.97-0.62-1.79-1.49-2.1V9.6c0-0.41-0.34-0.75-0.75-0.75S9.85,9.18,9.85,9.6v0.16c-0.87,0.31-1.49,1.13-1.49,2.1     c0,1.23,1,2.24,2.24,2.24c0.41,0,0.74,0.33,0.74,0.74s-0.33,0.74-0.74,0.74c-0.41,0-0.74-0.33-0.74-0.74     c0-0.41-0.34-0.75-0.75-0.75s-0.75,0.34-0.75,0.75c0,0.97,0.62,1.79,1.49,2.1v0.16c0,0.41,0.34,0.75,0.75,0.75     s0.75-0.34,0.75-0.75v-0.16c0.86-0.31,1.49-1.13,1.49-2.1c0-1.23-1-2.24-2.24-2.24c-0.41,0-0.74-0.33-0.74-0.74     S10.19,11.12,10.6,11.12z"/></g></g></g></svg>